<svg width="264" height="40" viewBox="0 0 264 40" fill="none" xmlns="http://www.w3.org/2000/svg">
<path d="M0.0313416 5.6063V0.0314941H29.7667V5.6063C29.7667 5.6063 28.8228 4.88189 26.9033 4.88189H19.9808V36.8819C19.9808 38.8031 20.6101 39.748 20.6101 39.748H9.18795C9.18795 39.748 9.81727 38.7717 9.81727 36.8819V4.88189H2.89475C0.97532 4.88189 0.0313416 5.6063 0.0313416 5.6063Z" fill="#DA2B1F"/>
<path fill-rule="evenodd" clip-rule="evenodd" d="M188.859 6.83464C180.458 6.83464 173.661 13.6378 173.661 22.0472C173.661 30.4567 180.458 37.2598 188.859 37.2598C197.26 37.2598 204.057 30.4567 204.057 22.0472C204.057 13.6378 197.26 6.83464 188.859 6.83464ZM187.6 25.0079C184.013 25.0079 181.118 22.1102 181.118 18.5197C181.118 14.9291 184.013 12.0315 187.6 12.0315C191.156 12.0315 194.082 14.9291 194.082 18.5197C194.051 22.1102 191.156 25.0079 187.6 25.0079Z" fill="#DA2B1F"/>
<path d="M110.131 27.0236H99.5899V10.4252C99.5899 8.50394 100.219 7.55906 100.219 7.55906H91.1255C91.1255 7.55906 91.7548 8.50394 91.7548 10.4252V33.7323C91.7548 35.6221 91.1255 36.5984 91.1255 36.5984H112.994V26.3307C112.994 26.3261 112.973 26.3379 112.931 26.3614C112.687 26.4973 111.74 27.0236 110.131 27.0236Z" fill="#DA2B1F"/>
<path d="M137.538 27.0236H125.801V21.9213H134.926V17.0709H125.801V12.441H135.965C137.884 12.441 138.828 13.1654 138.828 13.1654V7.55906H117.368C117.368 7.55906 117.997 8.50394 117.997 10.4252V33.7323C117.997 35.6221 117.368 36.5984 117.368 36.5984H140.433V26.3307C140.427 26.3251 140.392 26.3436 140.328 26.3777C140.033 26.5348 139.115 27.0236 137.538 27.0236Z" fill="#DA2B1F"/>
<path d="M249.211 27.0236H260.948C262.589 27.0236 263.517 26.4941 263.751 26.3602C263.768 26.3505 263.782 26.3428 263.792 26.3376C263.805 26.3307 263.811 26.3281 263.811 26.3307V36.5984H240.746C240.746 36.5984 241.376 35.6221 241.376 33.7323V10.4252C241.376 8.50394 240.746 7.55906 240.746 7.55906H262.238V13.1654C262.238 13.1654 261.294 12.441 259.374 12.441H249.211V17.0709H258.336V21.9213H249.211V27.0236Z" fill="#DA2B1F"/>
<path fill-rule="evenodd" clip-rule="evenodd" d="M41.8812 6.83464C33.4797 6.83464 26.6831 13.6378 26.6831 22.0472C26.6831 30.4567 33.4797 37.2598 41.8812 37.2598C50.2826 37.2598 57.0792 30.4567 57.0792 22.0472C57.0792 13.6378 50.2826 6.83464 41.8812 6.83464ZM40.6225 25.0079C37.0354 25.0079 34.1405 22.1102 34.1405 18.5197C34.1405 14.9291 37.0354 12.0315 40.6225 12.0315C44.1782 12.0315 47.1045 14.9291 47.1045 18.5197C47.073 22.1102 44.1782 25.0079 40.6225 25.0079Z" fill="#DA2B1F"/>
<path d="M235.366 7.52755C235.366 7.52755 234.736 8.50393 234.736 10.3937H234.705V33.7323C234.705 35.6535 235.334 36.5984 235.334 36.5984H224.888L215.29 20.7244V33.7638C215.29 35.6535 215.92 36.5984 215.92 36.5984H207.927C207.927 36.5984 208.557 35.622 208.557 33.7323V10.4252C208.557 8.50393 207.927 7.55905 207.927 7.55905H218.815L228.003 22.6457V10.3622C228.003 8.47243 227.373 7.52755 227.373 7.52755H235.366Z" fill="#DA2B1F"/>
<path fill-rule="evenodd" clip-rule="evenodd" d="M172.182 36.5669C171.667 35.8039 171.503 34.3521 171.3 32.5653C171.194 31.6233 171.077 30.5882 170.892 29.5118C170.326 26.0472 168.658 22.3622 163.969 19.8425C167.085 18.6772 169.13 16.378 169.13 13.2913C169.13 10.5827 167.085 7.55906 161.578 7.55906H145.058C145.058 7.55906 145.688 8.50394 145.688 10.4252V33.7323C145.688 35.6221 145.058 36.5984 145.058 36.5984H154.152C154.152 36.5984 153.523 35.6535 153.523 33.7323V20.7244C154.121 20.9449 154.907 21.2913 155.694 21.7008C162.396 25.2598 161.484 36.5669 161.484 36.5669H172.182ZM153.523 15.5591V12.4095H159.155C160.917 12.4095 161.609 13.3228 161.609 14.3622C161.609 15.6536 160.288 16.9764 157.833 17.1969C156.134 16.5354 154.498 15.9055 153.523 15.5591Z" fill="#DA2B1F"/>
<path fill-rule="evenodd" clip-rule="evenodd" d="M84.9896 13.2913C84.9896 16.2205 83.1331 18.4567 80.2697 19.6535C84.1715 21.5433 87.1608 23.937 87.1922 27.9685C87.1922 33.4803 82.5982 36.5984 77.1546 36.5984H60.9181C60.9181 36.5984 61.5474 35.6221 61.5474 33.7323V10.4252C61.5474 8.50394 60.9181 7.55906 60.9181 7.55906H77.4378C82.9443 7.55906 84.9896 10.5827 84.9896 13.2913ZM77.4692 14.3622C77.4692 13.3228 76.777 12.4095 75.0149 12.4095H69.3825V15.3071C70.4209 15.685 72.2773 16.378 74.1968 17.1339C76.3365 16.7874 77.4692 15.5591 77.4692 14.3622ZM69.3825 27.0236H75.6757C77.1231 27.0236 77.9727 26.3937 77.9412 25.3228C77.9412 24.315 77.0287 23.5591 72.9067 21.8898C72.0256 21.5118 70.3894 20.8819 69.3825 20.5039V27.0236Z" fill="#DA2B1F"/>
</svg>
